<?xml version="1.0" encoding="UTF-8"?>
<!DOCTYPE svg PUBLIC "-//W3C//DTD SVG 1.1//EN" "http://www.w3.org/Graphics/SVG/1.1/DTD/svg11.dtd">
<!-- Creator: CorelDRAW -->
<svg xmlns="http://www.w3.org/2000/svg" xml:space="preserve" width="2in" height="2in" version="1.1" style="shape-rendering:geometricPrecision; text-rendering:geometricPrecision; image-rendering:optimizeQuality; fill-rule:evenodd; clip-rule:evenodd"
viewBox="0 0 2000 2000"
 xmlns:xlink="http://www.w3.org/1999/xlink">
 <defs>
  <style type="text/css">
   <![CDATA[
    .str0 {stroke:#249ECF;stroke-width:3}
    .fil0 {fill:none}
    .fil2 {fill:#043659}
    .fil1 {fill:#249ECF}
   ]]>
  </style>
 </defs>
 <rect class="fil0" width="2000" height="2000"/>
 <g id="Layer_x0020_1">
  <metadata id="CorelCorpID_0Corel-Layer"/>
  <g id="_300379856">
   <path class="fil1" d="M420 1486c0,0 -1,0 -1,0 -32,-4 -63,-11 -93,-21 -6,-2 -10,-9 -8,-15 19,-89 61,-172 120,-240 5,-5 13,-6 19,-1 5,5 6,13 1,18 -54,62 -92,137 -112,217 25,7 50,12 76,16 7,1 12,7 11,14 -1,7 -6,12 -13,12z"/>
  </g>
  <g id="_300380120">
   <path class="fil1" d="M323 949c-4,0 -7,-2 -10,-4 -30,-34 -56,-72 -77,-112 -3,-6 -1,-13 5,-17 67,-42 143,-70 221,-81 7,-1 14,5 15,12 1,7 -4,14 -11,15 -71,9 -140,33 -201,70 19,34 42,66 68,95 5,6 4,14 -1,19 -3,2 -6,3 -9,3z"/>
  </g>
  <g id="_300379328">
   <path class="fil1" d="M608 519c-7,0 -13,-6 -13,-13 -3,-62 6,-124 25,-183 2,-7 8,-10 15,-9 81,18 157,54 221,106 6,4 7,12 3,18 -5,6 -13,7 -19,2 -58,-46 -126,-80 -199,-98 -15,53 -22,108 -20,163 0,8 -6,14 -13,14 0,0 0,0 0,0z"/>
  </g>
  <g id="_300379208">
   <path class="fil1" d="M1340 527c-7,0 -12,-6 -13,-13 -2,-89 -28,-176 -74,-252 -57,31 -107,72 -148,122 -5,5 -13,6 -19,2 -5,-5 -6,-13 -1,-19 46,-56 102,-101 166,-134 6,-3 14,-1 18,4 52,83 82,179 85,276 0,7 -6,14 -13,14 0,0 0,0 -1,0z"/>
  </g>
  <g id="_300377888">
   <path class="fil1" d="M1589 926c-4,0 -7,-1 -10,-4 -5,-6 -4,-14 2,-19 80,-70 136,-162 161,-266 -60,-17 -122,-23 -185,-19 -7,1 -13,-4 -14,-12 0,-7 5,-13 12,-14 70,-5 140,3 207,24 6,2 10,9 9,15 -26,115 -85,216 -173,292 -3,2 -6,3 -9,3z"/>
  </g>
  <g id="_300378584">
   <path class="fil1 str0" d="M1556 1350c-24,0 -49,-1 -73,-5 -7,-1 -12,-7 -11,-15 1,-7 7,-12 15,-11 116,16 235,-9 336,-70 -25,-44 -55,-85 -92,-121 -5,-5 -5,-13 0,-18 5,-5 13,-5 18,0 42,40 76,86 103,138 3,6 1,13 -5,17 -87,56 -189,85 -291,85z"/>
  </g>
  <g id="_300374432">
   <g>
    <path class="fil2" d="M1052 950c-3,0 -6,0 -8,-2 -6,-4 -7,-13 -3,-19 67,-89 102,-195 102,-307 0,-140 -58,-275 -159,-371 -101,96 -159,231 -159,371 0,112 35,218 102,307 4,6 3,15 -3,19 -6,4 -14,3 -18,-3 -70,-94 -107,-205 -107,-323 0,-151 64,-297 176,-399 5,-5 13,-5 18,0 112,102 176,248 176,399 0,118 -37,229 -107,323 -2,4 -6,5 -10,5z"/>
   </g>
   <g>
    <path class="fil2" d="M1116 1033c-6,0 -12,-4 -13,-11 -1,-7 4,-14 11,-15 110,-16 210,-66 289,-145 99,-99 154,-235 151,-375 -140,-3 -276,51 -375,150 -5,5 -10,10 -14,15 -5,5 -13,5 -19,0 -5,-5 -5,-13 0,-18 4,-5 9,-10 14,-15 107,-107 256,-165 407,-158 7,0 13,6 13,12 7,152 -51,300 -158,407 -83,83 -188,136 -304,153 0,0 -1,0 -2,0z"/>
   </g>
   <g>
    <path class="fil2" d="M1418 1242c-117,0 -229,-37 -322,-107 -6,-4 -8,-13 -3,-18 4,-6 12,-7 18,-3 89,66 196,101 307,101 140,0 275,-57 372,-158 -97,-101 -232,-159 -372,-159 -6,0 -13,0 -20,0 -7,1 -13,-5 -13,-12 0,-8 5,-14 12,-14 7,0 14,0 21,0 152,0 297,64 400,176 4,5 4,13 0,18 -103,111 -248,176 -400,176z"/>
   </g>
   <g>
    <path class="fil2" d="M1543 1653c-143,0 -281,-57 -383,-158 -83,-83 -136,-188 -153,-304 -1,-7 4,-14 12,-15 7,-1 13,4 14,11 17,110 67,210 146,289 99,99 235,153 375,151 3,-140 -52,-276 -151,-376 -4,-4 -9,-9 -14,-13 -5,-5 -6,-13 -1,-19 5,-5 14,-5 19,0 5,4 10,9 15,14 107,107 165,255 158,407 0,7 -6,12 -13,13 -8,0 -16,0 -24,0z"/>
   </g>
   <g>
    <path class="fil2" d="M425 1653c-8,0 -16,0 -24,0 -7,-1 -13,-6 -13,-13 -7,-151 51,-300 158,-407 5,-5 10,-10 15,-14 5,-5 14,-5 19,0 4,6 4,14 -1,19 -5,4 -10,9 -14,13 -100,100 -154,236 -151,376 140,3 276,-52 375,-151 79,-79 129,-179 145,-289 2,-7 8,-12 15,-11 8,1 12,8 11,15 -17,116 -69,221 -152,304 -102,101 -240,158 -383,158z"/>
   </g>
   <g>
    <path class="fil2" d="M550 1242c-152,0 -298,-65 -400,-176 -4,-5 -4,-13 0,-18 102,-112 248,-176 400,-176 7,0 14,0 20,0 8,0 13,6 13,14 0,7 -6,13 -14,12 -6,0 -13,0 -19,0 -140,0 -275,58 -372,159 97,101 232,158 372,158 111,0 217,-35 307,-101 6,-4 14,-3 18,3 4,5 3,14 -3,18 -93,70 -205,107 -322,107z"/>
   </g>
   <g>
    <path class="fil2" d="M852 1033c-1,0 -2,0 -2,0 -116,-17 -221,-70 -304,-153 -107,-107 -165,-255 -158,-407 0,-6 6,-12 13,-12 151,-7 300,51 407,158 5,5 9,10 14,15 5,5 5,13 -1,18 -5,5 -13,5 -18,0 -5,-5 -9,-10 -14,-15 -99,-99 -235,-153 -375,-150 -3,140 52,276 151,375 79,79 178,129 288,145 8,1 13,8 12,15 -1,7 -7,11 -13,11z"/>
   </g>
  </g>
  <g id="_300374408">
   <path class="fil2" d="M984 1781c-7,0 -13,-6 -13,-14l0 -573c0,-7 6,-13 13,-13 7,0 13,6 13,13l0 573c0,8 -6,14 -13,14z"/>
  </g>
  <g id="_300373352">
   <path class="fil2" d="M984 933c-7,0 -13,-6 -13,-14l0 -410c0,-7 6,-13 13,-13 7,0 13,6 13,13l0 410c0,8 -6,14 -13,14z"/>
  </g>
  <g id="_300373472">
   <path class="fil2" d="M1081 973c-3,0 -7,-2 -9,-4 -5,-5 -5,-14 0,-19l290 -290c5,-5 13,-5 18,0 5,5 5,14 0,19l-290 290c-2,2 -6,4 -9,4z"/>
  </g>
  <g id="_300372800">
   <path class="fil2" d="M1531 1070l-410 0c-7,0 -13,-6 -13,-13 0,-8 6,-13 13,-13l410 0c8,0 14,5 14,13 0,7 -6,13 -14,13z"/>
  </g>
  <g id="_300372752">
   <path class="fil2" d="M1371 1457c-3,0 -7,-1 -9,-4l-290 -290c-5,-5 -5,-13 0,-19 5,-5 13,-5 18,0l290 290c5,6 5,14 0,19 -2,3 -6,4 -9,4z"/>
  </g>
  <g id="_300373016">
   <path class="fil2" d="M597 1457c-4,0 -7,-1 -9,-4 -6,-5 -6,-13 0,-19l290 -290c5,-5 13,-5 18,0 5,6 5,14 0,19l-290 290c-2,3 -6,4 -9,4z"/>
  </g>
  <g id="_301783528">
   <path class="fil2" d="M847 1070l-410 0c-8,0 -14,-6 -14,-13 0,-8 6,-13 14,-13l410 0c7,0 13,5 13,13 0,7 -6,13 -13,13z"/>
  </g>
  <g id="_301782400">
   <path class="fil2" d="M887 973c-3,0 -7,-2 -9,-4l-290 -290c-6,-5 -6,-14 0,-19 5,-5 13,-5 18,0l290 290c5,5 5,14 0,19 -2,2 -6,4 -9,4z"/>
  </g>
  <g id="_301781752">
   <path class="fil1" d="M984 1207c-83,0 -151,-67 -151,-150 0,-83 68,-151 151,-151 83,0 150,68 150,151 0,83 -67,150 -150,150zm0 -274c-69,0 -124,55 -124,124 0,68 55,124 124,124 68,0 124,-56 124,-124 0,-69 -56,-124 -124,-124z"/>
  </g>
 </g>
</svg>
